<svg xmlns="http://www.w3.org/2000/svg" viewBox="0 0 192 64" width="768" height="256" shape-rendering="crispEdges"><rect width="192" height="64" fill="#b1b5a8"/><path fill="#4d544f" d="M60 8h1v1h-1zM64 8h1v1h-1zM66 8h1v1h-1zM67 8h1v1h-1zM68 8h1v1h-1zM69 8h1v1h-1zM70 8h1v1h-1zM72 8h1v1h-1zM78 8h1v1h-1zM85 8h1v1h-1zM86 8h1v1h-1zM87 8h1v1h-1zM98 8h1v1h-1zM99 8h1v1h-1zM100 8h1v1h-1zM102 8h1v1h-1zM103 8h1v1h-1zM104 8h1v1h-1zM105 8h1v1h-1zM115 8h1v1h-1zM116 8h1v1h-1zM117 8h1v1h-1zM121 8h1v1h-1zM122 8h1v1h-1zM123 8h1v1h-1zM127 8h1v1h-1zM128 8h1v1h-1zM129 8h1v1h-1zM60 9h1v1h-1zM64 9h1v1h-1zM66 9h1v1h-1zM72 9h1v1h-1zM78 9h1v1h-1zM84 9h1v1h-1zM88 9h1v1h-1zM99 9h1v1h-1zM102 9h1v1h-1zM106 9h1v1h-1zM114 9h1v1h-1zM118 9h1v1h-1zM120 9h1v1h-1zM124 9h1v1h-1zM126 9h1v1h-1zM130 9h1v1h-1zM60 10h1v1h-1zM64 10h1v1h-1zM66 10h1v1h-1zM72 10h1v1h-1zM78 10h1v1h-1zM84 10h1v1h-1zM88 10h1v1h-1zM99 10h1v1h-1zM102 10h1v1h-1zM106 10h1v1h-1zM114 10h1v1h-1zM118 10h1v1h-1zM120 10h1v1h-1zM123 10h1v1h-1zM124 10h1v1h-1zM126 10h1v1h-1zM129 10h1v1h-1zM130 10h1v1h-1zM60 11h1v1h-1zM61 11h1v1h-1zM62 11h1v1h-1zM63 11h1v1h-1zM64 11h1v1h-1zM66 11h1v1h-1zM67 11h1v1h-1zM68 11h1v1h-1zM69 11h1v1h-1zM72 11h1v1h-1zM78 11h1v1h-1zM84 11h1v1h-1zM88 11h1v1h-1zM99 11h1v1h-1zM102 11h1v1h-1zM103 11h1v1h-1zM104 11h1v1h-1zM105 11h1v1h-1zM108 11h1v1h-1zM109 11h1v1h-1zM110 11h1v1h-1zM111 11h1v1h-1zM112 11h1v1h-1zM115 11h1v1h-1zM116 11h1v1h-1zM117 11h1v1h-1zM120 11h1v1h-1zM122 11h1v1h-1zM124 11h1v1h-1zM126 11h1v1h-1zM128 11h1v1h-1zM130 11h1v1h-1zM60 12h1v1h-1zM64 12h1v1h-1zM66 12h1v1h-1zM72 12h1v1h-1zM78 12h1v1h-1zM84 12h1v1h-1zM88 12h1v1h-1zM99 12h1v1h-1zM102 12h1v1h-1zM104 12h1v1h-1zM114 12h1v1h-1zM118 12h1v1h-1zM120 12h1v1h-1zM121 12h1v1h-1zM124 12h1v1h-1zM126 12h1v1h-1zM127 12h1v1h-1zM130 12h1v1h-1zM60 13h1v1h-1zM64 13h1v1h-1zM66 13h1v1h-1zM72 13h1v1h-1zM78 13h1v1h-1zM84 13h1v1h-1zM88 13h1v1h-1zM96 13h1v1h-1zM99 13h1v1h-1zM102 13h1v1h-1zM105 13h1v1h-1zM114 13h1v1h-1zM118 13h1v1h-1zM120 13h1v1h-1zM124 13h1v1h-1zM126 13h1v1h-1zM130 13h1v1h-1zM60 14h1v1h-1zM64 14h1v1h-1zM66 14h1v1h-1zM67 14h1v1h-1zM68 14h1v1h-1zM69 14h1v1h-1zM70 14h1v1h-1zM72 14h1v1h-1zM73 14h1v1h-1zM74 14h1v1h-1zM75 14h1v1h-1zM76 14h1v1h-1zM78 14h1v1h-1zM79 14h1v1h-1zM80 14h1v1h-1zM81 14h1v1h-1zM82 14h1v1h-1zM85 14h1v1h-1zM86 14h1v1h-1zM87 14h1v1h-1zM97 14h1v1h-1zM98 14h1v1h-1zM102 14h1v1h-1zM106 14h1v1h-1zM115 14h1v1h-1zM116 14h1v1h-1zM117 14h1v1h-1zM121 14h1v1h-1zM122 14h1v1h-1zM123 14h1v1h-1zM127 14h1v1h-1zM128 14h1v1h-1zM129 14h1v1h-1zM60 24h1v1h-1zM64 24h1v1h-1zM67 24h1v1h-1zM68 24h1v1h-1zM69 24h1v1h-1zM73 24h1v1h-1zM74 24h1v1h-1zM75 24h1v1h-1zM76 24h1v1h-1zM78 24h1v1h-1zM82 24h1v1h-1zM85 24h1v1h-1zM86 24h1v1h-1zM87 24h1v1h-1zM90 24h1v1h-1zM94 24h1v1h-1zM96 24h1v1h-1zM97 24h1v1h-1zM98 24h1v1h-1zM99 24h1v1h-1zM100 24h1v1h-1zM109 24h1v1h-1zM110 24h1v1h-1zM111 24h1v1h-1zM112 24h1v1h-1zM115 24h1v1h-1zM116 24h1v1h-1zM117 24h1v1h-1zM120 24h1v1h-1zM121 24h1v1h-1zM122 24h1v1h-1zM123 24h1v1h-1zM126 24h1v1h-1zM127 24h1v1h-1zM128 24h1v1h-1zM129 24h1v1h-1zM130 24h1v1h-1zM60 25h1v1h-1zM61 25h1v1h-1zM63 25h1v1h-1zM64 25h1v1h-1zM66 25h1v1h-1zM70 25h1v1h-1zM72 25h1v1h-1zM78 25h1v1h-1zM82 25h1v1h-1zM86 25h1v1h-1zM90 25h1v1h-1zM91 25h1v1h-1zM94 25h1v1h-1zM96 25h1v1h-1zM108 25h1v1h-1zM114 25h1v1h-1zM118 25h1v1h-1zM120 25h1v1h-1zM124 25h1v1h-1zM126 25h1v1h-1zM60 26h1v1h-1zM62 26h1v1h-1zM64 26h1v1h-1zM66 26h1v1h-1zM70 26h1v1h-1zM72 26h1v1h-1zM78 26h1v1h-1zM82 26h1v1h-1zM86 26h1v1h-1zM90 26h1v1h-1zM92 26h1v1h-1zM94 26h1v1h-1zM96 26h1v1h-1zM108 26h1v1h-1zM114 26h1v1h-1zM118 26h1v1h-1zM120 26h1v1h-1zM124 26h1v1h-1zM126 26h1v1h-1zM60 27h1v1h-1zM62 27h1v1h-1zM64 27h1v1h-1zM66 27h1v1h-1zM67 27h1v1h-1zM68 27h1v1h-1zM69 27h1v1h-1zM70 27h1v1h-1zM72 27h1v1h-1zM78 27h1v1h-1zM79 27h1v1h-1zM80 27h1v1h-1zM81 27h1v1h-1zM82 27h1v1h-1zM86 27h1v1h-1zM90 27h1v1h-1zM93 27h1v1h-1zM94 27h1v1h-1zM96 27h1v1h-1zM97 27h1v1h-1zM98 27h1v1h-1zM99 27h1v1h-1zM108 27h1v1h-1zM114 27h1v1h-1zM118 27h1v1h-1zM120 27h1v1h-1zM124 27h1v1h-1zM126 27h1v1h-1zM127 27h1v1h-1zM128 27h1v1h-1zM129 27h1v1h-1zM60 28h1v1h-1zM64 28h1v1h-1zM66 28h1v1h-1zM70 28h1v1h-1zM72 28h1v1h-1zM78 28h1v1h-1zM82 28h1v1h-1zM86 28h1v1h-1zM90 28h1v1h-1zM94 28h1v1h-1zM96 28h1v1h-1zM108 28h1v1h-1zM114 28h1v1h-1zM118 28h1v1h-1zM120 28h1v1h-1zM124 28h1v1h-1zM126 28h1v1h-1zM60 29h1v1h-1zM64 29h1v1h-1zM66 29h1v1h-1zM70 29h1v1h-1zM72 29h1v1h-1zM78 29h1v1h-1zM82 29h1v1h-1zM86 29h1v1h-1zM90 29h1v1h-1zM94 29h1v1h-1zM96 29h1v1h-1zM108 29h1v1h-1zM114 29h1v1h-1zM118 29h1v1h-1zM120 29h1v1h-1zM124 29h1v1h-1zM126 29h1v1h-1zM60 30h1v1h-1zM64 30h1v1h-1zM66 30h1v1h-1zM70 30h1v1h-1zM73 30h1v1h-1zM74 30h1v1h-1zM75 30h1v1h-1zM76 30h1v1h-1zM78 30h1v1h-1zM82 30h1v1h-1zM85 30h1v1h-1zM86 30h1v1h-1zM87 30h1v1h-1zM90 30h1v1h-1zM94 30h1v1h-1zM96 30h1v1h-1zM97 30h1v1h-1zM98 30h1v1h-1zM99 30h1v1h-1zM100 30h1v1h-1zM109 30h1v1h-1zM110 30h1v1h-1zM111 30h1v1h-1zM112 30h1v1h-1zM115 30h1v1h-1zM116 30h1v1h-1zM117 30h1v1h-1zM120 30h1v1h-1zM121 30h1v1h-1zM122 30h1v1h-1zM123 30h1v1h-1zM126 30h1v1h-1zM127 30h1v1h-1zM128 30h1v1h-1zM129 30h1v1h-1zM130 30h1v1h-1zM59 40h1v1h-1zM64 40h1v1h-1zM65 40h1v1h-1zM66 40h1v1h-1zM70 40h1v1h-1zM71 40h1v1h-1zM72 40h1v1h-1zM81 40h1v1h-1zM85 40h1v1h-1zM94 40h1v1h-1zM95 40h1v1h-1zM96 40h1v1h-1zM102 40h1v1h-1zM111 40h1v1h-1zM112 40h1v1h-1zM113 40h1v1h-1zM114 40h1v1h-1zM118 40h1v1h-1zM119 40h1v1h-1zM120 40h1v1h-1zM123 40h1v1h-1zM124 40h1v1h-1zM125 40h1v1h-1zM126 40h1v1h-1zM127 40h1v1h-1zM130 40h1v1h-1zM131 40h1v1h-1zM132 40h1v1h-1zM133 40h1v1h-1zM58 41h1v1h-1zM59 41h1v1h-1zM63 41h1v1h-1zM67 41h1v1h-1zM69 41h1v1h-1zM73 41h1v1h-1zM81 41h1v1h-1zM85 41h1v1h-1zM93 41h1v1h-1zM101 41h1v1h-1zM102 41h1v1h-1zM111 41h1v1h-1zM115 41h1v1h-1zM117 41h1v1h-1zM121 41h1v1h-1zM125 41h1v1h-1zM129 41h1v1h-1zM59 42h1v1h-1zM63 42h1v1h-1zM67 42h1v1h-1zM73 42h1v1h-1zM82 42h1v1h-1zM84 42h1v1h-1zM93 42h1v1h-1zM100 42h1v1h-1zM102 42h1v1h-1zM111 42h1v1h-1zM115 42h1v1h-1zM117 42h1v1h-1zM121 42h1v1h-1zM125 42h1v1h-1zM129 42h1v1h-1zM59 43h1v1h-1zM64 43h1v1h-1zM65 43h1v1h-1zM66 43h1v1h-1zM67 43h1v1h-1zM72 43h1v1h-1zM83 43h1v1h-1zM93 43h1v1h-1zM94 43h1v1h-1zM95 43h1v1h-1zM96 43h1v1h-1zM99 43h1v1h-1zM102 43h1v1h-1zM111 43h1v1h-1zM115 43h1v1h-1zM117 43h1v1h-1zM121 43h1v1h-1zM125 43h1v1h-1zM130 43h1v1h-1zM131 43h1v1h-1zM132 43h1v1h-1zM59 44h1v1h-1zM67 44h1v1h-1zM71 44h1v1h-1zM82 44h1v1h-1zM84 44h1v1h-1zM93 44h1v1h-1zM97 44h1v1h-1zM99 44h1v1h-1zM100 44h1v1h-1zM101 44h1v1h-1zM102 44h1v1h-1zM103 44h1v1h-1zM111 44h1v1h-1zM115 44h1v1h-1zM117 44h1v1h-1zM121 44h1v1h-1zM125 44h1v1h-1zM133 44h1v1h-1zM59 45h1v1h-1zM67 45h1v1h-1zM70 45h1v1h-1zM81 45h1v1h-1zM85 45h1v1h-1zM93 45h1v1h-1zM97 45h1v1h-1zM102 45h1v1h-1zM111 45h1v1h-1zM115 45h1v1h-1zM117 45h1v1h-1zM121 45h1v1h-1zM125 45h1v1h-1zM133 45h1v1h-1zM58 46h1v1h-1zM59 46h1v1h-1zM60 46h1v1h-1zM64 46h1v1h-1zM65 46h1v1h-1zM66 46h1v1h-1zM69 46h1v1h-1zM70 46h1v1h-1zM71 46h1v1h-1zM72 46h1v1h-1zM73 46h1v1h-1zM81 46h1v1h-1zM85 46h1v1h-1zM94 46h1v1h-1zM95 46h1v1h-1zM96 46h1v1h-1zM102 46h1v1h-1zM111 46h1v1h-1zM112 46h1v1h-1zM113 46h1v1h-1zM114 46h1v1h-1zM118 46h1v1h-1zM119 46h1v1h-1zM120 46h1v1h-1zM125 46h1v1h-1zM129 46h1v1h-1zM130 46h1v1h-1zM131 46h1v1h-1zM132 46h1v1h-1z"/></svg>
